<?xml version="1.0"?>
<svg xmlns="http://www.w3.org/2000/svg" id="icons" viewBox="0 0 340 340" width="512" height="512"><path d="M65.022,301.81a34.476,34.476,0,0,0,24.905,10.517H105.31V330a4,4,0,0,0,5.682,3.629l19.917-9.233,19.916,9.233A4,4,0,0,0,156.507,330V281.582H257.519a32.535,32.535,0,0,0,1.558,8.251H168.641a4,4,0,0,0,0,8h104.53a3.647,3.647,0,0,1,3.644,3.644v2.85H168.641a4,4,0,1,0,0,8H280.815a4,4,0,0,0,4-4v-6.85a11.657,11.657,0,0,0-11.644-11.644H267.68c-4.171-9-1.409-18.659.2-22.858h5.288a11.657,11.657,0,0,0,11.644-11.644V10a4,4,0,0,0-4-4H90.567c-.07,0-.134.017-.2.02s-.125-.007-.188,0a36.946,36.946,0,0,0-20.917,9.042A41.367,41.367,0,0,0,55.194,46.483V276.729A34.493,34.493,0,0,0,65.022,301.81Zm83.485,21.926-15.916-7.377a3.989,3.989,0,0,0-3.364,0l-15.917,7.377V281.582h35.2ZM257.89,273.582H94.2a4,4,0,1,0,0,8H105.31v8.251H89.927a11.429,11.429,0,0,1-11.415-11.987,11.781,11.781,0,0,1,11.851-10.871H259.4A44.648,44.648,0,0,0,257.89,273.582Zm18.925-18.251a3.648,3.648,0,0,1-3.644,3.644H90.363a19.625,19.625,0,0,0-19.842,18.5,19.43,19.43,0,0,0,19.406,20.363H105.31v6.494H89.927a26.745,26.745,0,0,1-26.735-27.5c.393-14.332,12.674-25.991,27.375-25.991H276.815ZM74.491,21.113a29.3,29.3,0,0,1,12.076-6.371V227.659a4,4,0,0,0,8,0V14H276.815V242.837H90.567A35.693,35.693,0,0,0,63.194,255.7V46.483A33.377,33.377,0,0,1,74.491,21.113Z"/></svg>
