<svg id="Layer_1" height="512" viewBox="0 0 100 100" width="512" xmlns="http://www.w3.org/2000/svg"><path d="m29.685 65.787c-.568 2.252-1.894 4.193-3.696 5.544l7.345 4.896v13.773h6.666v-17.341z" fill="#7cb342"/><path d="m16.667 63.334c0 1.844 1.491 3.333 3.333 3.333s3.333-1.489 3.333-3.333c0-1.843-1.492-3.333-3.333-3.333s-3.333 1.49-3.333 3.333z" fill="#fff8e1"/><path d="m25.989 71.331 3.457 2.305c1.646-1.51 2.925-3.403 3.703-5.541l-3.463-2.308c-.569 2.252-1.895 4.193-3.697 5.544z" fill="#568b3f"/><path d="m20 53.335c-5.526 0-10 4.473-10 9.997 0 5.531 4.474 10.002 10 10.002s10-4.471 10-10.002c0-5.524-4.475-9.997-10-9.997zm0 13.332c-1.842 0-3.333-1.489-3.333-3.333 0-1.843 1.491-3.333 3.333-3.333s3.333 1.49 3.333 3.333c0 1.844-1.491 3.333-3.333 3.333z" fill="#ffc00e"/><path d="m18.93 65.597c0-1.843 1.49-3.333 3.333-3.333.323 0 .629.061.924.146-.402-1.389-1.667-2.409-3.187-2.409-1.843 0-3.333 1.49-3.333 3.333 0 1.519 1.02 2.784 2.408 3.188-.085-.295-.145-.602-.145-.925z" fill="#ffebb2"/><path d="m80.004 70c-1.173 0-2.293-.211-3.337-.58v2.916l-23.334 10.37v-10.042l11.668-5.185v-15.441l8.332-3.705v-7.244c-1.042.369-2.16.58-3.33.58-1.172 0-2.292-.211-3.336-.581v2.913l-8.334 3.705v15.441l-5 2.226v-35.952c-1.044.368-2.161.58-3.331.58-1.172 0-2.291-.212-3.335-.581v27.683l-13.333-8.887v-3.798c-1.044.37-2.163.581-3.334.581s-2.289-.211-3.333-.58v7.366l20 13.33v24.886h6.668l30-13.334v-7.247c-1.044.369-2.161.58-3.331.58z" fill="#7cb342"/><g fill="#568b3f"><path d="m30 48.999c1.293 0 2.54-.189 3.73-.52l-.396-.264v-3.798c-1.044.37-2.163.581-3.334.581s-2.289-.211-3.333-.58v4.163c1.071.264 2.183.418 3.333.418z"/><path d="m76.667 69.42v2.916l-1.648.73c1.551.594 3.226.934 4.985.934 1.149 0 2.261-.155 3.331-.418v-4.162c-1.044.369-2.161.58-3.331.58-1.173 0-2.293-.211-3.337-.58z"/><path d="m46.667 29.42v4.17c1.068.267 2.185.411 3.335.411 1.148 0 2.264-.147 3.331-.414v-4.166c-1.044.368-2.161.58-3.331.58-1.172 0-2.291-.212-3.335-.581z"/><path d="m70.003 45.669c1.149 0 2.261-.154 3.33-.417v-4.163c-1.042.369-2.16.58-3.33.58-1.172 0-2.292-.211-3.336-.581v2.913l-1.656.736c1.552.596 3.231.932 4.992.932z"/></g><path d="m66.667 31.667c0 1.842 1.49 3.334 3.334 3.334 1.842 0 3.332-1.492 3.332-3.334s-1.49-3.334-3.332-3.334c-1.844 0-3.334 1.492-3.334 3.334z" fill="#fff8e1"/><path d="m70.003 21.665c-5.531 0-10.003 4.477-10.003 10.003 0 5.525 4.472 10.001 10.003 10.001 5.525 0 9.997-4.476 9.997-10.001 0-5.526-4.472-10.003-9.997-10.003zm-.002 13.336c-1.844 0-3.334-1.492-3.334-3.334s1.49-3.334 3.334-3.334c1.842 0 3.332 1.492 3.332 3.334s-1.49 3.334-3.332 3.334z" fill="#ffc00e"/><path d="m76.667 60.001c0 1.842 1.49 3.333 3.334 3.333 1.842 0 3.332-1.491 3.332-3.333 0-1.844-1.49-3.333-3.332-3.333-1.844 0-3.334 1.489-3.334 3.333z" fill="#fff8e1"/><path d="m80.004 50.002c-5.532 0-10.004 4.47-10.004 10.001 0 5.526 4.472 9.997 10.004 9.997 5.524 0 9.996-4.471 9.996-9.997 0-5.531-4.472-10.001-9.996-10.001zm-.003 13.332c-1.844 0-3.334-1.491-3.334-3.333 0-1.844 1.49-3.333 3.334-3.333 1.842 0 3.332 1.489 3.332 3.333 0 1.842-1.49 3.333-3.332 3.333z" fill="#ffc00e"/><circle cx="30" cy="35.001" fill="#fff8e1" r="3.333"/><path d="m30 25.001c-5.526 0-10 4.482-10 10.002s4.474 9.996 10 9.996 10-4.477 10-9.996-4.474-10.002-10-10.002zm0 13.332c-1.842 0-3.333-1.492-3.333-3.332s1.491-3.334 3.333-3.334 3.333 1.494 3.333 3.334-1.491 3.332-3.333 3.332z" fill="#ffc00e"/><circle cx="50" cy="20" fill="#fff8e1" r="3.333"/><path d="m50.002 9.999c-5.527 0-10.002 4.48-10.002 10.001 0 5.52 4.475 10.001 10.002 10.001s9.998-4.481 9.998-10.001c0-5.521-4.471-10.001-9.998-10.001zm-.002 13.334c-1.841 0-3.333-1.493-3.333-3.333s1.492-3.333 3.333-3.333c1.843 0 3.333 1.493 3.333 3.333s-1.49 3.333-3.333 3.333z" fill="#ffc00e"/><path d="m28.93 37.262c0-1.841 1.49-3.333 3.334-3.332.322 0 .629.061.923.146-.402-1.39-1.667-2.409-3.187-2.409-1.843 0-3.333 1.49-3.333 3.332 0 1.52 1.02 2.785 2.409 3.188-.086-.295-.146-.602-.146-.925z" fill="#ffebb2"/><path d="m48.93 22.262c0-1.842 1.49-3.333 3.334-3.332.322 0 .629.061.923.146-.402-1.39-1.667-2.41-3.187-2.409-1.843-.001-3.333 1.49-3.333 3.332 0 1.519 1.02 2.785 2.409 3.188-.086-.295-.146-.602-.146-.925z" fill="#ffebb2"/><path d="m68.929 33.928c0-1.841 1.49-3.333 3.334-3.332.322 0 .629.061.924.146-.402-1.39-1.668-2.41-3.187-2.409-1.844-.001-3.333 1.49-3.333 3.332-.001 1.52 1.02 2.785 2.408 3.188-.086-.295-.146-.602-.146-.925z" fill="#ffebb2"/><path d="m78.929 62.262c0-1.841 1.49-3.333 3.334-3.331.323 0 .629.06.924.146-.401-1.39-1.667-2.409-3.187-2.408-1.844-.001-3.333 1.489-3.333 3.331-.001 1.52 1.02 2.786 2.408 3.188-.086-.296-.146-.603-.146-.926z" fill="#ffebb2"/><path d="m46.667 57.103-4-2.666v8.012l4 2.666z" fill="#568b3f"/><path d="m57.333 70.886v-7.293l-4 1.78v7.291z" fill="#568b3f"/><path d="m53.335 90.001 3.998-1.776v-7.297l-4 1.778v7.295z" fill="#568b3f"/></svg>