<svg id="icons" enable-background="new 0 0 64 64" height="512" viewBox="0 0 64 64" width="512" xmlns="http://www.w3.org/2000/svg"><path d="m47.5 11h-.01c-2.66-5.9-8.6-10-15.49-10-8.72 0-15.91 6.56-16.88 15.02l-.12-.02h-1c-5.52 0-10 4.479-10 10 0 5.52 4.48 10 10 10h33.5c6.91 0 12.5-5.601 12.5-12.5 0-6.9-5.59-12.5-12.5-12.5z" fill="#e6e9ed"/><g fill="#5d9cec"><path d="m9 47c1.11 0 2 .899 2 2 0 1.109-.89 2-2 2-1.1 0-2-.891-2-2 0-1.101.9-2 2-2z"/><path d="m16.01 55.01c1.11 0 2 .89 2 2 0 1.1-.89 2-2 2-1.1 0-2-.9-2-2 0-1.111.9-2 2-2z"/><path d="m32.01 59c1.101 0 2 .89 2 2 0 1.1-.899 2-2 2-1.1 0-2-.9-2-2 0-1.11.9-2 2-2z"/><path d="m48.01 55.01c1.101 0 2 .89 2 2 0 1.1-.899 2-2 2-1.109 0-2-.9-2-2 0-1.111.89-2 2-2z"/><path d="m55.01 47c1.11 0 2 .899 2 2 0 1.109-.89 2-2 2-1.1 0-2-.891-2-2 0-1.101.9-2 2-2z"/></g><path d="m4 26c0 5.52 4.48 10 10 10h33.5c6.91 0 12.5-5.601 12.5-12.5v3.97c0 6.9-5.59 12.5-12.5 12.5h-2.48-7-12.02-7-5c-5.52 0-10-4.48-10-10z" fill="#ccd1d9"/><path d="m32 6c6.63 0 12 5.38 12 12 0 6.63-5.37 12-12 12-6.62 0-12-5.37-12-12 0-6.62 5.38-12 12-12z" fill="#5d9cec"/><path d="m49.001 19.003c-.553 0-1-.447-1-1 0-8.822-7.178-16-16-16s-16 7.178-16 16c0 .553-.447 1-1 1s-1-.447-1-1c0-9.925 8.075-18 18-18s18 8.075 18 18c0 .553-.447 1-1 1z"/><path d="m47.501 37.001c-.553 0-1-.447-1-1s.447-1 1-1c6.341 0 11.5-5.158 11.5-11.499s-5.159-11.5-11.5-11.5c-.553 0-1-.447-1-1s.447-1 1-1c7.444 0 13.5 6.056 13.5 13.5 0 7.443-6.056 13.499-13.5 13.499z"/><path d="m14.001 37.001c-6.065 0-11-4.935-11-10.999 0-6.065 4.935-11 11-11 .553 0 1 .447 1 1s-.447 1-1 1c-4.963 0-9 4.037-9 9 0 4.962 4.037 8.999 9 8.999.553 0 1 .447 1 1s-.447 1-1 1z"/><path d="m47.501 37.001h-33.5c-.553 0-1-.447-1-1s.447-1 1-1h33.5c.553 0 1 .447 1 1s-.447 1-1 1z"/><path d="m15.001 17.002h-1c-.553 0-1-.447-1-1s.447-1 1-1h1c.553 0 1 .447 1 1s-.447 1-1 1z"/><path d="m47.501 40.972c-.553 0-1-.447-1-1s.447-1 1-1c6.341 0 11.5-5.158 11.5-11.499 0-.553.447-1 1-1s1 .447 1 1c0 7.443-6.056 13.499-13.5 13.499z"/><path d="m14.001 40.972c-6.065 0-11-4.935-11-10.999 0-.553.447-1 1-1s1 .447 1 1c0 4.962 4.037 8.999 9 8.999.553 0 1 .447 1 1s-.447 1-1 1z"/><path d="m47.501 40.972h-33.5c-.553 0-1-.447-1-1s.447-1 1-1h33.5c.553 0 1 .447 1 1s-.447 1-1 1z"/><path d="m60.001 28.473c-.553 0-1-.447-1-1v-3.971c0-.553.447-1 1-1s1 .447 1 1v3.971c0 .552-.447 1-1 1z"/><path d="m4.001 30.973c-.553 0-1-.447-1-1v-3.971c0-.553.447-1 1-1s1 .447 1 1v3.971c0 .552-.447 1-1 1z"/><path d="m9.005 52.003c-1.654 0-3-1.346-3-3s1.346-3 3-3 3 1.346 3 3-1.346 3-3 3zm0-4c-.552 0-1 .448-1 1s.448 1 1 1 1-.448 1-1-.448-1-1-1z"/><path d="m16.012 60.011c-1.654 0-3-1.346-3-3s1.346-3 3-3 3 1.346 3 3-1.346 3-3 3zm0-4c-.552 0-1 .448-1 1s.448 1 1 1 1-.448 1-1-.449-1-1-1z"/><path d="m32.01 64.001c-1.654 0-3-1.346-3-3s1.346-3 3-3 3 1.346 3 3-1.346 3-3 3zm0-4c-.552 0-1 .448-1 1s.448 1 1 1 1-.448 1-1-.448-1-1-1z"/><path d="m32.01 60.001c-.553 0-1-.447-1-1v-18.999c0-.553.447-1 1-1s1 .447 1 1v18.999c0 .553-.447 1-1 1z"/><path d="m26.001 58.011h-7.989c-.553 0-1-.447-1-1s.447-1 1-1h7.989c.553 0 1 .447 1 1s-.447 1-1 1z"/><path d="m26.001 58.011c-.553 0-1-.447-1-1v-17.039c0-.553.447-1 1-1s1 .447 1 1v17.039c0 .552-.447 1-1 1z"/><path d="m19 50.003h-7.995c-.553 0-1-.447-1-1s.447-1 1-1h7.995c.553 0 1 .447 1 1s-.447 1-1 1z"/><path d="m19 50.003c-.553 0-1-.447-1-1v-9.031c0-.553.447-1 1-1s1 .447 1 1v9.031c0 .553-.447 1-1 1z"/><path d="m55.015 52.003c-1.654 0-3-1.346-3-3s1.346-3 3-3 3 1.346 3 3-1.346 3-3 3zm0-4c-.552 0-1 .448-1 1s.448 1 1 1 1-.448 1-1-.449-1-1-1z"/><path d="m48.008 60.011c-1.654 0-3-1.346-3-3s1.346-3 3-3 3 1.346 3 3-1.346 3-3 3zm0-4c-.552 0-1 .448-1 1s.448 1 1 1 1-.448 1-1-.448-1-1-1z"/><path d="m46.008 58.011h-7.989c-.553 0-1-.447-1-1s.447-1 1-1h7.989c.553 0 1 .447 1 1s-.447 1-1 1z"/><path d="m38.019 58.011c-.553 0-1-.447-1-1v-17.039c0-.553.447-1 1-1s1 .447 1 1v17.039c0 .552-.448 1-1 1z"/><path d="m53.015 50.003h-7.995c-.553 0-1-.447-1-1s.447-1 1-1h7.995c.553 0 1 .447 1 1s-.448 1-1 1z"/><path d="m45.02 50.003c-.553 0-1-.447-1-1v-9.031c0-.553.447-1 1-1s1 .447 1 1v9.031c0 .553-.448 1-1 1z"/><path d="m32.001 31.003c-7.168 0-13-5.832-13-13s5.832-13 13-13 13 5.832 13 13-5.832 13-13 13zm0-24c-6.065 0-11 4.935-11 11s4.935 11 11 11 11-4.935 11-11-4.935-11-11-11z"/><path d="m32.001 24.001c-.553 0-1-.447-1-1v-9.997c0-.553.447-1 1-1s1 .447 1 1v9.997c0 .553-.447 1-1 1z"/><path d="m37 19.002h-9.998c-.553 0-1-.447-1-1s.447-1 1-1h9.998c.553 0 1 .447 1 1s-.447 1-1 1z"/></svg>