<svg id="Capa_1" enable-background="new 0 0 512 512" height="512" viewBox="0 0 512 512" width="512" xmlns="http://www.w3.org/2000/svg"><g><path d="m399.702 109.066c-11.995-31.214-32.711-57.961-60.073-77.508-28.9-20.645-63.001-31.558-98.618-31.558-49.517 0-96.471 21.561-128.823 59.154-2.702 3.139-2.348 7.875.792 10.577s7.874 2.347 10.577-.792c29.501-34.279 72.31-53.939 117.454-53.939 65.009 0 123.581 41.105 145.748 102.282 1.459 4.031 5.332 6.737 9.65 6.737h.013c55.459.001 100.578 45.188 100.578 100.73 0 25.879-9.784 50.471-27.55 69.245-2.848 3.008-2.717 7.755.292 10.603 3.004 2.843 7.751 2.72 10.603-.293 20.413-21.572 31.655-49.825 31.655-79.555 0-62.707-50.062-113.926-112.298-115.683z"/><path d="m263 458.048v-16.048c0-4.142-3.357-7.5-7.5-7.5s-7.5 3.358-7.5 7.5v16.048c-11.528 3.274-20 13.889-20 26.452 0 15.164 12.337 27.5 27.5 27.5s27.5-12.336 27.5-27.5c0-12.563-8.472-23.178-20-26.452zm-7.5 38.952c-6.893 0-12.5-5.607-12.5-12.5s5.607-12.5 12.5-12.5 12.5 5.607 12.5 12.5-5.607 12.5-12.5 12.5z"/><path d="m192.5 386.5c-4.143 0-7.5 3.358-7.5 7.5v40.5c0 3.584-2.916 6.5-6.5 6.5h-13.548c-3.274-11.528-13.889-20-26.452-20-15.163 0-27.5 12.336-27.5 27.5s12.337 27.5 27.5 27.5c12.563 0 23.178-8.472 26.452-20h13.548c11.855 0 21.5-9.645 21.5-21.5v-40.5c0-4.142-3.357-7.5-7.5-7.5zm-54 74.5c-6.893 0-12.5-5.607-12.5-12.5s5.607-12.5 12.5-12.5 12.5 5.607 12.5 12.5-5.607 12.5-12.5 12.5z"/><path d="m434.5 365c-12.563 0-23.178 8.472-26.452 20h-13.548c-3.584 0-6.5-2.916-6.5-6.5v-38.513c12.148-.01 19.204-.033 19.632-.074 14.99-1.446 29.336-5.74 42.638-12.763 3.663-1.934 5.065-6.471 3.132-10.134-1.935-3.663-6.472-5.067-10.134-3.131-11.497 6.069-23.89 9.794-36.841 11.074-1.67.03-11.081.042-25.918.041-.003 0-.006 0-.009 0s-.006 0-.009 0c-59.521-.003-206.377-.218-291.84-.359-14.291-.026-27.802-3.886-39.072-11.16-21.652-13.974-34.579-37.695-34.579-63.452 0-36.919 26.339-68.194 62.63-74.365 4.759-.811 8.31-4.925 8.443-9.782.676-24.571 6.913-47.935 18.539-69.442 1.97-3.644.612-8.194-3.031-10.164-3.646-1.972-8.195-.612-10.164 3.031-12.146 22.47-18.931 46.778-20.19 72.316-41.504 8.912-71.227 45.478-71.227 88.406 0 30.875 15.493 59.306 41.444 76.055 13.691 8.837 30.006 13.525 47.181 13.557 11.317.019 22.807.037 34.375.056v38.803c0 3.584-2.916 6.5-6.5 6.5h-13.548c-3.274-11.528-13.889-20-26.452-20-15.163 0-27.5 12.336-27.5 27.5s12.337 27.5 27.5 27.5c12.563 0 23.178-8.472 26.452-20h13.548c11.855 0 21.5-9.645 21.5-21.5v-38.779c15.679.025 31.424.049 47 .072v19.207c0 4.142 3.357 7.5 7.5 7.5s7.5-3.358 7.5-7.5v-19.185c16.369.024 32.462.046 48 .066v67.119c0 4.142 3.357 7.5 7.5 7.5s7.5-3.358 7.5-7.5v-67.1c16.94.021 33.071.039 48 .054v94.546c0 11.855 9.645 21.5 21.5 21.5h13.548c3.274 11.528 13.889 20 26.452 20 15.163 0 27.5-12.336 27.5-27.5s-12.337-27.5-27.5-27.5c-12.563 0-23.178 8.472-26.452 20h-13.548c-3.584 0-6.5-2.916-6.5-6.5v-94.532c18.181.015 34.13.024 46.989.024h.011v38.508c0 11.855 9.645 21.5 21.5 21.5h13.548c3.274 11.528 13.889 20 26.452 20 15.163 0 27.5-12.336 27.5-27.5s-12.337-27.5-27.5-27.5zm-358 40c-6.893 0-12.5-5.607-12.5-12.5s5.607-12.5 12.5-12.5 12.5 5.607 12.5 12.5-5.607 12.5-12.5 12.5zm296 31c6.893 0 12.5 5.607 12.5 12.5s-5.607 12.5-12.5 12.5-12.5-5.607-12.5-12.5 5.607-12.5 12.5-12.5zm62-31c-6.893 0-12.5-5.607-12.5-12.5s5.607-12.5 12.5-12.5 12.5 5.607 12.5 12.5-5.607 12.5-12.5 12.5z"/></g></svg>