<svg id="Capa_1" enable-background="new 0 0 497 497" height="512" viewBox="0 0 497 497" width="512" xmlns="http://www.w3.org/2000/svg"><g><g><path d="m248 474.5c-4.143 0-7.5-3.358-7.5-7.5v-142c0-4.142 3.357-7.5 7.5-7.5s7.5 3.358 7.5 7.5v142c0 4.142-3.357 7.5-7.5 7.5z" fill="#3c6a73"/></g><g><path d="m171 448.5h-30c-4.143 0-7.5-3.358-7.5-7.5s3.357-7.5 7.5-7.5h30c3.584 0 6.5-2.916 6.5-6.5v-102c0-4.142 3.357-7.5 7.5-7.5s7.5 3.358 7.5 7.5v102c0 11.855-9.645 21.5-21.5 21.5z" fill="#3c6a73"/></g><g><path d="m109 392.5h-30c-4.143 0-7.5-3.358-7.5-7.5s3.357-7.5 7.5-7.5h30c3.584 0 6.5-2.916 6.5-6.5v-46c0-4.142 3.357-7.5 7.5-7.5s7.5 3.358 7.5 7.5v46c0 11.855-9.645 21.5-21.5 21.5z" fill="#3c6a73"/></g><g><path d="m365 448.5h-40c-11.855 0-21.5-9.645-21.5-21.5v-102c0-4.142 3.357-7.5 7.5-7.5s7.5 3.358 7.5 7.5v102c0 3.584 2.916 6.5 6.5 6.5h40c4.143 0 7.5 3.358 7.5 7.5s-3.357 7.5-7.5 7.5z" fill="#3c6a73"/></g><g><path d="m417 392.5h-30c-11.855 0-21.5-9.645-21.5-21.5v-46c0-4.142 3.357-7.5 7.5-7.5s7.5 3.358 7.5 7.5v46c0 3.584 2.916 6.5 6.5 6.5h30c4.143 0 7.5 3.358 7.5 7.5s-3.357 7.5-7.5 7.5z" fill="#3c6a73"/></g><g fill="#ffd064"><circle cx="248" cy="477" r="20"/><circle cx="131" cy="441" r="20"/><circle cx="69" cy="385" r="20"/><circle cx="365" cy="441" r="20"/><circle cx="427" cy="385" r="20"/></g><g fill="#ffc250"><path d="m267.49 481.49c-2.03 8.89-9.99 15.51-19.49 15.51-11.05 0-20-8.95-20-20 0-9.5 6.62-17.46 15.51-19.49-.33 1.44-.51 2.95-.51 4.49 0 11.05 8.95 20 20 20 1.54 0 3.05-.18 4.49-.51z"/><path d="m150.49 445.49c-2.03 8.89-9.99 15.51-19.49 15.51-11.05 0-20-8.95-20-20 0-9.5 6.62-17.46 15.51-19.49-.33 1.44-.51 2.95-.51 4.49 0 11.05 8.95 20 20 20 1.54 0 3.05-.18 4.49-.51z"/><path d="m88.49 389.49c-2.03 8.89-9.99 15.51-19.49 15.51-11.05 0-20-8.95-20-20 0-9.5 6.62-17.46 15.51-19.49-.33 1.44-.51 2.95-.51 4.49 0 11.05 8.95 20 20 20 1.54 0 3.05-.18 4.49-.51z"/><path d="m384.49 445.49c-2.03 8.89-9.99 15.51-19.49 15.51-11.05 0-20-8.95-20-20 0-9.5 6.62-17.46 15.51-19.49-.33 1.44-.51 2.95-.51 4.49 0 11.05 8.95 20 20 20 1.54 0 3.05-.18 4.49-.51z"/><path d="m446.49 389.49c-2.03 8.89-9.99 15.51-19.49 15.51-11.05 0-20-8.95-20-20 0-9.5 6.62-17.46 15.51-19.49-.33 1.44-.51 2.95-.51 4.49 0 11.05 8.95 20 20 20 1.54 0 3.05-.18 4.49-.51z"/></g><path d="m81.137 324.641c-15.243-.028-30.314-4.089-43.126-12.358-22.868-14.76-38.011-40.482-38.011-69.754 0-41.044 29.774-75.111 68.87-81.759 1.262-.215 2.171-1.315 2.206-2.594 2.415-87.767 74.208-158.176 162.435-158.176 70.284 0 130.137 44.686 152.8 107.23.395 1.091 1.431 1.79 2.591 1.789h.02c59.69 0 108.078 48.456 108.078 108.23 0 56.227-42.824 102.414-97.589 107.698-2.255.218-318.274-.306-318.274-.306z" fill="#6cbff8"/><path d="m357.87 58c-28.22-23.72-64.62-38-104.36-38-88.23 0-160.02 70.41-162.43 158.18-.04 1.28-.95 2.38-2.21 2.59-39.1 6.65-68.87 40.71-68.87 81.76 0 17.8 5.6 34.29 15.15 47.8-21.26-14.99-35.15-39.77-35.15-67.8 0-41.05 29.77-75.11 68.87-81.76 1.26-.21 2.17-1.31 2.21-2.59 2.41-87.77 74.2-158.18 162.43-158.18 49.92 0 94.57 22.54 124.36 58z" fill="#5fa7ee"/></g></svg>