<svg id="icons" enable-background="new 0 0 64 64" height="512" viewBox="0 0 64 64" width="512" xmlns="http://www.w3.org/2000/svg"><g fill="#4a89dc"><path d="m32.01 59.5c-.553 0-1-.447-1-1v-18.998c0-.553.447-1 1-1s1 .447 1 1v18.998c0 .553-.447 1-1 1z"/><path d="m26.001 57.51h-7.989c-.553 0-1-.447-1-1s.447-1 1-1h7.989c.553 0 1 .447 1 1s-.447 1-1 1z"/><path d="m26.001 57.51c-.553 0-1-.447-1-1v-17.039c0-.553.447-1 1-1s1 .447 1 1v17.039c0 .553-.447 1-1 1z"/><path d="m19 49.502h-7.995c-.553 0-1-.447-1-1s.447-1 1-1h7.995c.553 0 1 .447 1 1s-.447 1-1 1z"/><path d="m19 49.502c-.553 0-1-.447-1-1v-9.031c0-.553.447-1 1-1s1 .447 1 1v9.031c0 .553-.447 1-1 1z"/><path d="m46.008 57.51h-7.989c-.553 0-1-.447-1-1s.447-1 1-1h7.989c.553 0 1 .447 1 1s-.447 1-1 1z"/><path d="m38.019 57.51c-.553 0-1-.447-1-1v-17.039c0-.553.447-1 1-1s1 .447 1 1v17.039c0 .553-.448 1-1 1z"/><path d="m53.015 49.502h-7.995c-.553 0-1-.447-1-1s.447-1 1-1h7.995c.553 0 1 .447 1 1s-.448 1-1 1z"/><path d="m45.02 49.502c-.553 0-1-.447-1-1v-9.031c0-.553.447-1 1-1s1 .447 1 1v9.031c0 .553-.448 1-1 1z"/></g><path d="m47.5 10.5h-.01c-2.66-5.9-8.6-10-15.49-10-8.72 0-15.91 6.559-16.88 15.02l-.12-.02h-1c-5.52 0-10 4.479-10 10 0 5.52 4.48 10 10 10h33.5c6.91 0 12.5-5.602 12.5-12.5 0-6.9-5.59-12.5-12.5-12.5z" fill="#e6e9ed"/><path d="m9 46.5c1.11 0 2 .898 2 2 0 1.109-.89 2-2 2-1.1 0-2-.891-2-2 0-1.102.9-2 2-2z" fill="#5d9cec"/><path d="m16.01 54.51c1.11 0 2 .889 2 2 0 1.1-.89 2-2 2-1.1 0-2-.9-2-2 0-1.112.9-2 2-2z" fill="#5d9cec"/><path d="m32.01 58.5c1.101 0 2 .889 2 2 0 1.1-.899 2-2 2-1.1 0-2-.9-2-2 0-1.111.9-2 2-2z" fill="#5d9cec"/><path d="m48.01 54.51c1.101 0 2 .889 2 2 0 1.1-.899 2-2 2-1.109 0-2-.9-2-2 0-1.112.89-2 2-2z" fill="#5d9cec"/><path d="m55.01 46.5c1.11 0 2 .898 2 2 0 1.109-.89 2-2 2-1.1 0-2-.891-2-2 0-1.102.9-2 2-2z" fill="#5d9cec"/><path d="m4 25.5c0 5.52 4.48 10 10 10h33.5c6.91 0 12.5-5.602 12.5-12.5v3.969c0 6.9-5.59 12.5-12.5 12.5h-2.48-7-12.02-7-5c-5.52 0-10-4.48-10-10z" fill="#ccd1d9"/><path d="m32 5.5c6.63 0 12 5.379 12 12 0 6.629-5.37 12-12 12-6.62 0-12-5.371-12-12 0-6.621 5.38-12 12-12z" fill="#5d9cec"/><path d="m9.005 51.502c-1.654 0-3-1.346-3-3s1.346-3 3-3 3 1.346 3 3-1.346 3-3 3zm0-4c-.552 0-1 .449-1 1 0 .553.448 1 1 1s1-.447 1-1c0-.551-.448-1-1-1z" fill="#5d9cec"/><path d="m16.012 59.51c-1.654 0-3-1.346-3-3s1.346-3 3-3 3 1.346 3 3-1.346 3-3 3zm0-4c-.552 0-1 .449-1 1 0 .553.448 1 1 1s1-.447 1-1c0-.551-.449-1-1-1z" fill="#5d9cec"/><path d="m32.01 63.5c-1.654 0-3-1.346-3-3s1.346-3 3-3 3 1.346 3 3-1.346 3-3 3zm0-4c-.552 0-1 .449-1 1 0 .553.448 1 1 1s1-.447 1-1c0-.551-.448-1-1-1z" fill="#5d9cec"/><path d="m55.015 51.502c-1.654 0-3-1.346-3-3s1.346-3 3-3 3 1.346 3 3-1.346 3-3 3zm0-4c-.552 0-1 .449-1 1 0 .553.448 1 1 1s1-.447 1-1c0-.551-.449-1-1-1z" fill="#5d9cec"/><path d="m48.008 59.51c-1.654 0-3-1.346-3-3s1.346-3 3-3 3 1.346 3 3-1.346 3-3 3zm0-4c-.552 0-1 .449-1 1 0 .553.448 1 1 1s1-.447 1-1c0-.551-.448-1-1-1z" fill="#5d9cec"/><path d="m32.001 23.5c-.553 0-1-.447-1-1v-9.996c0-.553.447-1 1-1s1 .447 1 1v9.996c0 .553-.447 1-1 1z" fill="#4a89dc"/><path d="m37 18.502h-9.998c-.553 0-1-.447-1-1s.447-1 1-1h9.998c.553 0 1 .447 1 1s-.447 1-1 1z" fill="#4a89dc"/></svg>