<svg id="Capa_1" enable-background="new 0 0 512 512" height="512" viewBox="0 0 512 512" width="512" xmlns="http://www.w3.org/2000/svg"><g><g><g><path d="m512 145.945v282.33c0 29.66-24.13 53.79-53.79 53.79h-404.42c-29.66 0-53.79-24.13-53.79-53.79v-282.33l39.25-23.37h444.02z" fill="#574d8c"/></g><path d="m512 145.945v282.33c0 29.66-24.13 53.79-53.79 53.79h-202.21v-359.49h227.27z" fill="#3e3373"/><path d="m278.224 56.469-22.224-26.534h-202.21c-29.66 0-53.79 24.13-53.79 53.79v62.22h256l22.224-25.755z" fill="#a9f"/><path d="m512 83.725v62.22h-256v-116.01h202.21c29.66 0 53.79 24.13 53.79 53.79z" fill="#96f"/><circle cx="447" cy="87.94" fill="#ff4d88" r="15"/><circle cx="387" cy="87.94" fill="#ffd480" r="15"/></g><path d="m256 356.608c-25.2 0-45.7-20.5-45.7-45.7s20.5-45.7 45.7-45.7l14.903-11.815-14.903-18.186c-36.61 0-67.22 26.12-74.2 60.7h-106.8c-8.28 0-15 6.72-15 15s6.72 15 15 15h106.8c6.98 34.58 37.59 60.7 74.2 60.7l13.979-18.188z" fill="#e4ebf2"/><path d="m452 310.908c0 8.28-6.72 15-15 15h-106.8c-6.98 34.58-37.59 60.7-74.2 60.7v-30c25.2 0 45.7-20.5 45.7-45.7s-20.5-45.7-45.7-45.7v-30c36.61 0 67.22 26.12 74.2 60.7h106.8c8.28 0 15 6.719 15 15z" fill="#ccd6e7"/></g></svg>